<?xml version="1.0" encoding="UTF-8"?>
<svg version="1.1" xmlns="http://www.w3.org/2000/svg" width="98" height="142">
<path d="M0 0 C0.64475784 -0.00014603 1.28951569 -0.00029205 1.95381165 -0.0004425 C4.05851759 0.00024722 6.16313202 0.00799498 8.26782227 0.01586914 C9.73755342 0.01773667 11.20728521 0.01915899 12.67701721 0.02015686 C16.52552033 0.02395569 20.37398508 0.03376318 24.22247314 0.04486084 C28.15750612 0.05513189 32.09254535 0.05966663 36.02758789 0.06469727 C43.7339855 0.07538807 51.44035161 0.09243247 59.14672852 0.11352539 C59.31854144 2.35893166 59.48710823 4.60458648 59.65429688 6.8503418 C59.79562294 8.72612411 59.79562294 8.72612411 59.93980408 10.63980103 C60.27428597 16.25488408 59.70730267 21.5077838 59.14672852 27.11352539 C52.87672852 27.11352539 46.60672852 27.11352539 40.14672852 27.11352539 C40.14672852 43.94352539 40.14672852 60.77352539 40.14672852 78.11352539 C27.27672852 78.11352539 14.40672852 78.11352539 1.14672852 78.11352539 C1.14672852 61.28352539 1.14672852 44.45352539 1.14672852 27.11352539 C-5.12327148 27.11352539 -11.39327148 27.11352539 -17.85327148 27.11352539 C-17.96094576 23.34193493 -18.04043599 19.57339899 -18.10327148 15.80102539 C-18.13678711 14.72916992 -18.17030273 13.65731445 -18.20483398 12.55297852 C-18.21772461 11.52495117 -18.23061523 10.49692383 -18.24389648 9.43774414 C-18.26484375 8.48988037 -18.28579102 7.5420166 -18.30737305 6.56542969 C-17.85327148 4.11352539 -17.85327148 4.11352539 -16.26635742 2.34326172 C-11.26480016 -0.20558935 -5.51264391 -0.01058089 0 0 Z " fill="#50ADD2" transform="translate(33.853271484375,31.886474609375)"/>
<path d="M0 0 C1.04611954 -0.00315216 2.09223907 -0.00630432 3.1700592 -0.009552 C4.30946457 -0.00752777 5.44886993 -0.00550354 6.62280273 -0.00341797 C8.38925392 -0.00485306 8.38925392 -0.00485306 10.19139099 -0.00631714 C12.69741875 -0.00699943 15.20344826 -0.00514179 17.70947266 -0.00097656 C21.48856768 0.00429983 25.26753991 -0.00088245 29.04663086 -0.00732422 C41.74244708 -0.01047603 54.33052774 0.20226817 66.99389648 1.12939453 C66.99389648 8.38939453 66.99389648 15.64939453 66.99389648 23.12939453 C51.46707569 24.28729602 35.99523816 24.24317732 20.43139648 24.19189453 C17.76277754 24.18629024 15.09415917 24.18230737 12.42553711 24.17822266 C5.9483005 24.1673091 -0.52889113 24.15010683 -7.00610352 24.12939453 C-7.00610352 16.53939453 -7.00610352 8.94939453 -7.00610352 1.12939453 C-4.50190012 -0.12270716 -2.80219209 0.00241971 0 0 Z " fill="#2D8EC2" transform="translate(24.006103515625,33.87060546875)"/>
<path d="M0 0 C0.64475784 -0.00014603 1.28951569 -0.00029205 1.95381165 -0.0004425 C4.05851759 0.00024722 6.16313202 0.00799498 8.26782227 0.01586914 C9.73755342 0.01773667 11.20728521 0.01915899 12.67701721 0.02015686 C16.52552033 0.02395569 20.37398508 0.03376318 24.22247314 0.04486084 C28.15750612 0.05513189 32.09254535 0.05966663 36.02758789 0.06469727 C43.7339855 0.07538807 51.44035161 0.09243247 59.14672852 0.11352539 C59.31854144 2.35893166 59.48710823 4.60458648 59.65429688 6.8503418 C59.79562294 8.72612411 59.79562294 8.72612411 59.93980408 10.63980103 C60.27428597 16.25488408 59.70730267 21.5077838 59.14672852 27.11352539 C52.87672852 27.11352539 46.60672852 27.11352539 40.14672852 27.11352539 C40.14672852 43.94352539 40.14672852 60.77352539 40.14672852 78.11352539 C27.27672852 78.11352539 14.40672852 78.11352539 1.14672852 78.11352539 C1.14672852 61.28352539 1.14672852 44.45352539 1.14672852 27.11352539 C-5.12327148 27.11352539 -11.39327148 27.11352539 -17.85327148 27.11352539 C-17.85327148 19.52352539 -17.85327148 11.93352539 -17.85327148 4.11352539 C-17.52327148 4.11352539 -17.19327148 4.11352539 -16.85327148 4.11352539 C-16.85327148 11.37352539 -16.85327148 18.63352539 -16.85327148 26.11352539 C-10.64534235 26.07394512 -10.64534235 26.07394512 -4.4375 26.0234375 C-3.66849365 26.02093994 -2.8994873 26.01844238 -2.10717773 26.01586914 C-0.92103882 26.00801392 -0.92103882 26.00801392 0.2890625 26 C2.14672852 26.11352539 2.14672852 26.11352539 3.14672852 27.11352539 C3.23984741 28.61771278 3.26418879 30.12623895 3.26025391 31.63330078 C3.26017838 32.59422134 3.26010284 33.55514191 3.26002502 34.54518127 C3.25486374 35.5899614 3.24970245 36.63474152 3.24438477 37.71118164 C3.24296982 38.77517685 3.24155487 39.83917206 3.24009705 40.93540955 C3.23447915 44.34897622 3.22192362 47.76247839 3.20922852 51.17602539 C3.20421582 53.48396715 3.19965252 55.79190994 3.19555664 58.09985352 C3.18535285 63.7711226 3.16578095 69.4422514 3.14672852 75.11352539 C14.69672852 75.11352539 26.24672852 75.11352539 38.14672852 75.11352539 C38.14672852 59.27352539 38.14672852 43.43352539 38.14672852 27.11352539 C37.15672852 26.78352539 36.16672852 26.45352539 35.14672852 26.11352539 C39.77115213 24.93656788 44.22674622 24.99985608 48.95922852 25.05102539 C53.01204102 25.08196289 53.01204102 25.08196289 57.14672852 25.11352539 C56.65172852 14.71852539 56.65172852 14.71852539 56.14672852 4.11352539 C41.48771686 3.0232614 26.84111739 2.7871921 12.14672852 2.55102539 C9.61807701 2.50773545 7.08943109 2.46411821 4.56079102 2.42016602 C-1.5771706 2.31418058 -7.71518868 2.21222964 -13.85327148 2.11352539 C-13.85327148 1.78352539 -13.85327148 1.45352539 -13.85327148 1.11352539 C-9.18776941 0.36486185 -4.72326208 -0.00906576 0 0 Z " fill="#7FB9D2" transform="translate(33.853271484375,31.886474609375)"/>
<path d="M0 0 C0.75410156 0.00451172 1.50820313 0.00902344 2.28515625 0.01367188 C4.14847127 0.02546501 6.01174555 0.04340058 7.875 0.0625 C7.875 0.3925 7.875 0.7225 7.875 1.0625 C7.11574219 1.09988281 6.35648438 1.13726562 5.57421875 1.17578125 C4.58035156 1.24152344 3.58648437 1.30726562 2.5625 1.375 C1.57636719 1.43300781 0.59023438 1.49101563 -0.42578125 1.55078125 C-3.10149273 1.87628242 -3.10149273 1.87628242 -4.94140625 3.2734375 C-6.53114267 5.67640543 -6.59942874 7.51018372 -6.75 10.375 C-6.9858007 14.40045479 -7.45402891 18.03667345 -8.125 22.0625 C-3.175 22.0625 1.775 22.0625 6.875 22.0625 C7.205 22.7225 7.535 23.3825 7.875 24.0625 C1.935 24.0625 -4.005 24.0625 -10.125 24.0625 C-10.125 16.4725 -10.125 8.8825 -10.125 1.0625 C-6.93675432 -0.53162284 -3.49603338 -0.03924735 0 0 Z " fill="#3F82B0" transform="translate(27.125,33.9375)"/>
<path d="M0 0 C1.48831242 0.00667405 2.97660807 0.01863442 4.46484375 0.03515625 C5.22345703 0.03966797 5.98207031 0.04417969 6.76367188 0.04882812 C8.64326246 0.06064945 10.52281274 0.07858547 12.40234375 0.09765625 C12.40234375 0.42765625 12.40234375 0.75765625 12.40234375 1.09765625 C11.64308594 1.13503906 10.88382813 1.17242187 10.1015625 1.2109375 C9.10769531 1.27667969 8.11382812 1.34242187 7.08984375 1.41015625 C6.10371094 1.46816406 5.11757813 1.52617188 4.1015625 1.5859375 C1.41874386 1.90605143 1.41874386 1.90605143 -0.41015625 3.34765625 C-1.90392902 5.54900559 -2.09379853 7.14441965 -2.28515625 9.78515625 C-2.38376953 10.99751953 -2.38376953 10.99751953 -2.484375 12.234375 C-2.52175781 12.84925781 -2.55914063 13.46414062 -2.59765625 14.09765625 C-3.25765625 14.09765625 -3.91765625 14.09765625 -4.59765625 14.09765625 C-4.62451563 11.95188988 -4.64398713 9.8060298 -4.66015625 7.66015625 C-4.67175781 6.46519531 -4.68335937 5.27023438 -4.6953125 4.0390625 C-4.55229808 -0.26853198 -4.42802071 0.120196 0 0 Z " fill="#3785BA" transform="translate(22.59765625,33.90234375)"/>
<path d="M0 0 C1.32 0 2.64 0 4 0 C4.99 2.31 5.98 4.62 7 7 C4.69 7 2.38 7 0 7 C0 4.69 0 2.38 0 0 Z " fill="#3386BD" transform="translate(74,50)"/>
<path d="" fill="#FFFFFF" transform="translate(0,0)"/>
<path d="" fill="#FFFFFF" transform="translate(0,0)"/>
<path d="" fill="#FFFFFF" transform="translate(0,0)"/>
<path d="" fill="#FFFFFF" transform="translate(0,0)"/>
<path d="" fill="#FFFFFF" transform="translate(0,0)"/>
<path d="" fill="#FFFFFF" transform="translate(0,0)"/>
<path d="" fill="#FFFFFF" transform="translate(0,0)"/>
<path d="" fill="#FFFFFF" transform="translate(0,0)"/>
<path d="" fill="#FFFFFF" transform="translate(0,0)"/>
<path d="" fill="#FFFFFF" transform="translate(0,0)"/>
<path d="" fill="#FFFFFF" transform="translate(0,0)"/>
<path d="" fill="#FFFFFF" transform="translate(0,0)"/>
<path d="" fill="#FFFFFF" transform="translate(0,0)"/>
<path d="" fill="#FFFFFF" transform="translate(0,0)"/>
<path d="" fill="#FFFFFF" transform="translate(0,0)"/>
<path d="" fill="#FFFFFF" transform="translate(0,0)"/>
<path d="" fill="#FFFFFF" transform="translate(0,0)"/>
<path d="" fill="#FFFFFF" transform="translate(0,0)"/>
<path d="" fill="#FFFFFF" transform="translate(0,0)"/>
<path d="" fill="#FFFFFF" transform="translate(0,0)"/>
<path d="" fill="#FFFFFF" transform="translate(0,0)"/>
<path d="" fill="#FFFFFF" transform="translate(0,0)"/>
<path d="" fill="#FFFFFF" transform="translate(0,0)"/>
<path d="" fill="#FFFFFF" transform="translate(0,0)"/>
<path d="" fill="#FFFFFF" transform="translate(0,0)"/>
<path d="" fill="#FFFFFF" transform="translate(0,0)"/>
<path d="" fill="#FFFFFF" transform="translate(0,0)"/>
<path d="" fill="#FFFFFF" transform="translate(0,0)"/>
<path d="" fill="#FFFFFF" transform="translate(0,0)"/>
<path d="" fill="#FFFFFF" transform="translate(0,0)"/>
<path d="" fill="#FFFFFF" transform="translate(0,0)"/>
<path d="" fill="#FFFFFF" transform="translate(0,0)"/>
<path d="" fill="#FFFFFF" transform="translate(0,0)"/>
<path d="" fill="#FFFFFF" transform="translate(0,0)"/>
<path d="" fill="#FFFFFF" transform="translate(0,0)"/>
<path d="" fill="#FFFFFF" transform="translate(0,0)"/>
<path d="" fill="#FF00FF" transform="translate(0,0)"/>
<path d="" fill="#FFFFFF" transform="translate(0,0)"/>
<path d="" fill="#FFFFFF" transform="translate(0,0)"/>
<path d="" fill="#FFFFFF" transform="translate(0,0)"/>
<path d="" fill="#FFFFFF" transform="translate(0,0)"/>
<path d="" fill="#FFFFFF" transform="translate(0,0)"/>
<path d="" fill="#FFFFFF" transform="translate(0,0)"/>
<path d="" fill="#FFFFFF" transform="translate(0,0)"/>
<path d="" fill="#FFFFFF" transform="translate(0,0)"/>
<path d="" fill="#FFFFFF" transform="translate(0,0)"/>
<path d="" fill="#FFFFFF" transform="translate(0,0)"/>
<path d="" fill="#FFFFFF" transform="translate(0,0)"/>
<path d="" fill="#FFFFFF" transform="translate(0,0)"/>
<path d="" fill="#FFFEFF" transform="translate(0,0)"/>
<path d="" fill="#FFFFFF" transform="translate(0,0)"/>
<path d="" fill="#FFFFFF" transform="translate(0,0)"/>
<path d="" fill="#FFFFFF" transform="translate(0,0)"/>
<path d="" fill="#FFFFFF" transform="translate(0,0)"/>
<path d="" fill="#FFFFFF" transform="translate(0,0)"/>
<path d="" fill="#FFFFFF" transform="translate(0,0)"/>
<path d="" fill="#FFFFFF" transform="translate(0,0)"/>
<path d="" fill="#FFFFFF" transform="translate(0,0)"/>
<path d="" fill="#FFFFFF" transform="translate(0,0)"/>
<path d="" fill="#FFFFFF" transform="translate(0,0)"/>
<path d="" fill="#FFFFFF" transform="translate(0,0)"/>
<path d="" fill="#FFFFFF" transform="translate(0,0)"/>
<path d="" fill="#FFFFFF" transform="translate(0,0)"/>
<path d="" fill="#FFFFFF" transform="translate(0,0)"/>
<path d="" fill="#FFFFFF" transform="translate(0,0)"/>
<path d="" fill="#FFFFFF" transform="translate(0,0)"/>
<path d="" fill="#FFFFFF" transform="translate(0,0)"/>
<path d="" fill="#FFFFFF" transform="translate(0,0)"/>
<path d="" fill="#FFFFFF" transform="translate(0,0)"/>
</svg>
